<?xml version="1.0" encoding="utf-8"?>
<!-- Generator: Adobe Illustrator 26.3.1, SVG Export Plug-In . SVG Version: 6.00 Build 0)  -->
<svg version="1.1" id="Layer_1" xmlns="http://www.w3.org/2000/svg" xmlns:xlink="http://www.w3.org/1999/xlink" x="0px" y="0px"
	 viewBox="0 0 465 643" style="enable-background:new 0 0 465 643;" xml:space="preserve">
<style type="text/css">
	.st0{fill:#2D4364;}
	.st1{fill:#005E32;}
	.st2{fill:#FFFFFF;}
	.st3{fill:#BD2A28;}
</style>
<g>
	<path class="st0" d="M233.5,637.4C27.2,535-40.6,228.5,38.3,8.5c49.2,26.3,144.6,24.4,195.2-3c50.9,27.6,146.3,29.2,195,3
		C507.4,234.6,439.8,532.5,233.5,637.4z"/>
	<path class="st1" d="M436.5,336H234V108c108.2,24,90.1,24.4,198.8,2.5c3.6,11,10.8,48.6,13.2,60.5C448.5,209.5,441,297.1,436.5,336
		z"/>
	<polygon class="st1" points="234,620 172.7,577.7 107.3,507 63.3,432.3 33,336 234,336 	"/>
	<polygon class="st2" points="129.8,321.4 84.8,153.5 207.8,276.4 39.8,231.4 207.8,186.4 84.8,309.4 129.8,141.4 174.8,309.4 
		51.9,186.4 219.8,231.4 51.9,276.4 174.8,153.5 	"/>
	<path class="st0" d="M180.8,231.4c-1.1,67-100.9,67-102,0C80,164.4,179.7,164.4,180.8,231.4z"/>
	<path class="st3" d="M28.8,100.4c67.7,28.5,147.1,27.4,204.7,0c58,27.6,137.4,28.3,205,0c41.4,202.9-18.4,415.2-205,527.5
		C47.5,516.3-14.1,302.2,28.8,100.4z M312.3,552.3c119.4-108.7,146.4-297.8,118.2-438.6c-67.7,27.2-148,20.3-197-2.5
		c-50.8,23.5-131,29.2-197,2.4c-37.5,190.9,21.6,394.3,197,502.5C248.9,606.4,279.3,585.5,312.3,552.3z"/>
	<polygon class="st2" points="360.1,480.8 314.3,449.5 269.3,481.9 285,428.7 240.3,396 295.7,394.4 313,341.8 331.6,394 
		387.1,394.2 343.1,428 	"/>
	<polygon class="st3" points="96.3,490.3 207.4,414 174.8,414 279.6,315 254.2,315 385.5,193 344,193 203.5,336 217.2,336 
		122.5,429 155.1,429.5 	"/>
	<path class="st3" d="M143,65V38h5.4c0,0,6.9,20.4,7.6,22.8c0.8-2.5,6.8-19.9,7.8-22.8h4.2v26h-3V42.3L157.4,64h-3.2L146,42v22
		L143,65L143,65z"/>
	<polygon class="st3" points="174,65 174,38 193,38 193,41 178,41 178,49 193,49 193,52 178,52 178,62 194,62 194,65 	"/>
	<path class="st3" d="M199,64.6l0-26.6c3.6,0.2,14.4-0.6,17.3,0.7c6.9,3.1,4.5,13.7-3.4,13.8c4.2,1.8,7.1,8.6,9.7,11.5h-4.4
		c-5.3-6.7-5.2-12.4-15.1-11.2V65h-4V64.6z M203,49.8c4.2-0.5,14,2,14.1-4.5c0.1-6.3-10.2-3.8-14.1-4.3L203,49.8z"/>
	<path class="st3" d="M226,64.6l0-26.6c3.5,0.2,14.3-0.6,17.2,0.7c6.9,3.1,4.5,13.7-3.4,13.8c4.2,1.8,7.1,8.6,9.7,11.5H245
		c-5.3-6.7-5.2-12.4-15-11.2V65h-4V64.6z M230,49.8c3.7-0.5,13.5,2,13.6-4.5c0.1-6.3-10.2-3.8-14.6-4.3L230,49.8z"/>
	<polygon class="st3" points="253,65 253,38 257,38 257,64 253.4,65 	"/>
	<polygon class="st3" points="263,65 263,38 267,38 267,61 280,61 280,64 263,65 	"/>
	<polygon class="st3" points="284,65 284,38 287,38 287,61 301,61 301,64 283.7,65 	"/>
	<path class="st3" d="M303.3,56.1l3.3-0.3c0.1,10.9,22.9,5.2,11.4-2.1c-1.3-0.6-8.6-2.1-9.9-3c-14.4-11,14.9-20.4,15.6-5.2l-3.4,0.3
		c0.4-7.9-16.8-6-11.6,1.3c4.6,2.9,16.2,2.2,15.8,10.1C324.1,68.6,303,67.4,303.3,56.1z"/>
	<path class="st3" d="M117,95V68h5.6c0,0,6.9,20.7,7.6,23.1c0.8-2.5,6.8-19.9,7.8-23.1h4.1v27h-3V72.6L131.5,95h-3.2L120,72.2V95
		H117z"/>
	<path class="st3" d="M145.3,95l10.4-27h3.8l11,27h-4.3l-3.1-8h-11l-2.9,8H145.3z M153.1,84h9c-1.2-3.2-3.9-10.1-4.7-12.9
		C157,74.5,154.3,80.7,153.1,84z"/>
	<path class="st3" d="M173,95V68.3c3.8,0.2,14.6-0.6,17.5,0.7c6.9,3.1,4.5,13.7-3.4,13.8c4.2,1.8,7.1,8.6,9.7,12.2h-4.4
		c-5.3-7.4-5.2-13.1-15.3-11.9V95l-3.7,0H173z M177,80c4.2-0.5,14,2,14.1-4.5c0.1-6.3-10.2-3.8-14.1-4.3L177,80z"/>
	<path class="st3" d="M197,95l10.4-27h3.8l11.1,27H218l-3.1-8h-11l-2.9,8H197z M204.8,84h9c-1.2-3.2-3.9-10.1-4.7-12.9
		C208.7,74.5,206,80.7,204.8,84z"/>
	<path class="st3" d="M242,68h3.5c-0.8,8.8,4.1,28.1-10.5,27.1c-14.7,1.2-9.8-18.2-10.6-27.1h3.6v15.4c-0.3,5.2,1.5,8.6,6.8,8.5
		c5.9-0.1,7.2-2.4,7.2-8.5L242,68z"/>
	<path class="st3" d="M252,94.9V68.3c10.9-0.3,22.2-1.3,22,13.2C274.4,95.8,262.8,95.4,252,94.9L252,94.9L252,94.9z M255,92
		c8.4,0.5,15.3,0,14.9-10.4c0.4-10.2-6.9-10.5-14.9-10L255,92L255,92z"/>
	<polygon class="st3" points="279,95 279,68 298,68 298,71 282,71 282,80 297,80 297,83 282,83 282,92 298,92 298,94 278.7,95 	"/>
	<path class="st3" d="M303,95V68.3c4,0.2,14.8-0.6,17.8,0.7c6.9,3.1,4.5,13.7-3.4,13.8c4.2,1.8,7.1,8.6,9.7,12.2h-4.4
		c-5.3-7.4-5.2-13.1-15.6-11.9V95l-3.5,0H303z M308,80c3.3-0.5,13.1,2,13.2-4.5c0.1-6.3-10.2-3.8-14.2-4.3L308,80z"/>
	<path class="st3" d="M329.2,86.4l3.3-0.3c0.1,10.9,22.9,5.2,11.4-2.1c-1.3-0.6-8.6-2.1-9.9-3c-14.4-11,14.9-20.4,15.6-5.2l-3.4,0.3
		c0.4-7.9-16.8-6-11.6,1.3c4.6,2.8,16.2,2.2,15.8,10.1C349.9,98.8,328.8,97.7,329.2,86.4z"/>
	<path class="st2" d="M174.8,231.4c-1,59.2-89,59.1-90,0C85.8,172.3,173.8,172.3,174.8,231.4z"/>
</g>
</svg>
